<svg xmlns="http://www.w3.org/2000/svg" width="75px" height="335px">
  <style>
    .scale-text {
    font-family: 'Roboto Condensed',sans-serif;
    font-size: 14px;
    }
  </style>
  <g class="scale-text">
    <text y="15" x="20" text-anchor="middle">°C</text>
  </g>
  <path d="M10,320L30,320L20,325" fill="rgb(196, 160, 217)">
  </path>
  <rect x="10" y="315" width="20" height="5" fill="rgb(186, 144, 212)" stroke="rgb(186, 144, 212)">
  </rect>
  <rect x="10" y="310" width="20" height="5" fill="rgb(176, 128, 206)" stroke="rgb(176, 128, 206)">
  </rect>
  <rect x="10" y="305" width="20" height="5" fill="rgb(167, 112, 200)" stroke="rgb(167, 112, 200)">
  </rect>
  <rect x="10" y="300" width="20" height="5" fill="rgb(157, 96, 194)" stroke="rgb(157, 96, 194)">
  </rect>
  <rect x="10" y="295" width="20" height="5" fill="rgb(147, 80, 189)" stroke="rgb(147, 80, 189)">
  </rect>
  <rect x="10" y="290" width="20" height="5" fill="rgb(137, 64, 183)" stroke="rgb(137, 64, 183)">
  </rect>
  <rect x="10" y="285" width="20" height="5" fill="rgb(127, 48, 177)" stroke="rgb(127, 48, 177)">
  </rect>
  <rect x="10" y="280" width="20" height="5" fill="rgb(118, 32, 171)" stroke="rgb(118, 32, 171)">
  </rect>
  <rect x="10" y="275" width="20" height="5" fill="rgb(108, 16, 166)" stroke="rgb(108, 16, 166)">
  </rect>
  <rect x="10" y="270" width="20" height="5" fill="rgb(98, 0, 160)" stroke="rgb(98, 0, 160)">
  </rect>
  <rect x="10" y="265" width="20" height="5" fill="rgb(93, 13, 166)" stroke="rgb(93, 13, 166)">
  </rect>
  <rect x="10" y="260" width="20" height="5" fill="rgb(89, 26, 171)" stroke="rgb(89, 26, 171)">
  </rect>
  <rect x="10" y="255" width="20" height="5" fill="rgb(84, 38, 177)" stroke="rgb(84, 38, 177)">
  </rect>
  <rect x="10" y="250" width="20" height="5" fill="rgb(79, 51, 183)" stroke="rgb(79, 51, 183)">
  </rect>
  <rect x="10" y="245" width="20" height="5" fill="rgb(75, 64, 188)" stroke="rgb(75, 64, 188)">
  </rect>
  <rect x="10" y="240" width="20" height="5" fill="rgb(70, 77, 194)" stroke="rgb(70, 77, 194)">
  </rect>
  <rect x="10" y="235" width="20" height="5" fill="rgb(65, 89, 200)" stroke="rgb(65, 89, 200)">
  </rect>
  <rect x="10" y="230" width="20" height="5" fill="rgb(61, 102, 205)" stroke="rgb(61, 102, 205)">
  </rect>
  <rect x="10" y="225" width="20" height="5" fill="rgb(56, 115, 211)" stroke="rgb(56, 115, 211)">
  </rect>
  <rect x="10" y="220" width="20" height="5" fill="rgb(19, 179, 245)" stroke="rgb(19, 179, 245)">
  </rect>
  <rect x="10" y="215" width="20" height="5" fill="rgb(17, 179, 221)" stroke="rgb(17, 179, 221)">
  </rect>
  <rect x="10" y="210" width="20" height="5" fill="rgb(15, 179, 196)" stroke="rgb(15, 179, 196)">
  </rect>
  <rect x="10" y="205" width="20" height="5" fill="rgb(13, 179, 172)" stroke="rgb(13, 179, 172)">
  </rect>
  <rect x="10" y="200" width="20" height="5" fill="rgb(11, 179, 147)" stroke="rgb(11, 179, 147)">
  </rect>
  <rect x="10" y="195" width="20" height="5" fill="rgb(10, 179, 123)" stroke="rgb(10, 179, 123)">
  </rect>
  <rect x="10" y="190" width="20" height="5" fill="rgb(8, 179, 98)" stroke="rgb(8, 179, 98)">
  </rect>
  <rect x="10" y="185" width="20" height="5" fill="rgb(6, 179, 74)" stroke="rgb(6, 179, 74)">
  </rect>
  <rect x="10" y="180" width="20" height="5" fill="rgb(4, 179, 49)" stroke="rgb(4, 179, 49)">
  </rect>
  <rect x="10" y="175" width="20" height="5" fill="rgb(2, 179, 25)" stroke="rgb(2, 179, 25)">
  </rect>
  <rect x="10" y="170" width="20" height="5" fill="rgb(0, 179, 0)" stroke="rgb(0, 179, 0)">
  </rect>
  <rect x="10" y="165" width="20" height="5" fill="rgb(24, 184, 0)" stroke="rgb(24, 184, 0)">
  </rect>
  <rect x="10" y="160" width="20" height="5" fill="rgb(48, 190, 0)" stroke="rgb(48, 190, 0)">
  </rect>
  <rect x="10" y="155" width="20" height="5" fill="rgb(72, 195, 0)" stroke="rgb(72, 195, 0)">
  </rect>
  <rect x="10" y="150" width="20" height="5" fill="rgb(96, 200, 0)" stroke="rgb(96, 200, 0)">
  </rect>
  <rect x="10" y="145" width="20" height="5" fill="rgb(121, 206, 0)" stroke="rgb(121, 206, 0)">
  </rect>
  <rect x="10" y="140" width="20" height="5" fill="rgb(145, 211, 0)" stroke="rgb(145, 211, 0)">
  </rect>
  <rect x="10" y="135" width="20" height="5" fill="rgb(169, 216, 0)" stroke="rgb(169, 216, 0)">
  </rect>
  <rect x="10" y="130" width="20" height="5" fill="rgb(193, 221, 0)" stroke="rgb(193, 221, 0)">
  </rect>
  <rect x="10" y="125" width="20" height="5" fill="rgb(217, 227, 0)" stroke="rgb(217, 227, 0)">
  </rect>
  <rect x="10" y="120" width="20" height="5" fill="rgb(241, 232, 0)" stroke="rgb(241, 232, 0)">
  </rect>
  <rect x="10" y="115" width="20" height="5" fill="rgb(242, 224, 3)" stroke="rgb(242, 224, 3)">
  </rect>
  <rect x="10" y="110" width="20" height="5" fill="rgb(244, 215, 5)" stroke="rgb(244, 215, 5)">
  </rect>
  <rect x="10" y="105" width="20" height="5" fill="rgb(245, 207, 8)" stroke="rgb(245, 207, 8)">
  </rect>
  <rect x="10" y="100" width="20" height="5" fill="rgb(247, 198, 10)" stroke="rgb(247, 198, 10)">
  </rect>
  <rect x="10" y="95" width="20" height="5" fill="rgb(248, 190, 13)" stroke="rgb(248, 190, 13)">
  </rect>
  <rect x="10" y="90" width="20" height="5" fill="rgb(249, 181, 16)" stroke="rgb(249, 181, 16)">
  </rect>
  <rect x="10" y="85" width="20" height="5" fill="rgb(251, 173, 18)" stroke="rgb(251, 173, 18)">
  </rect>
  <rect x="10" y="80" width="20" height="5" fill="rgb(252, 164, 21)" stroke="rgb(252, 164, 21)">
  </rect>
  <rect x="10" y="75" width="20" height="5" fill="rgb(254, 156, 23)" stroke="rgb(254, 156, 23)">
  </rect>
  <rect x="10" y="70" width="20" height="5" fill="rgb(255, 147, 26)" stroke="rgb(255, 147, 26)">
  </rect>
  <rect x="10" y="65" width="20" height="5" fill="rgb(245, 134, 25)" stroke="rgb(245, 134, 25)">
  </rect>
  <rect x="10" y="60" width="20" height="5" fill="rgb(235, 121, 24)" stroke="rgb(235, 121, 24)">
  </rect>
  <rect x="10" y="55" width="20" height="5" fill="rgb(225, 109, 22)" stroke="rgb(225, 109, 22)">
  </rect>
  <rect x="10" y="50" width="20" height="5" fill="rgb(215, 96, 21)" stroke="rgb(215, 96, 21)">
  </rect>
  <rect x="10" y="45" width="20" height="5" fill="rgb(206, 83, 20)" stroke="rgb(206, 83, 20)">
  </rect>
  <rect x="10" y="40" width="20" height="5" fill="rgb(196, 70, 19)" stroke="rgb(196, 70, 19)">
  </rect>
  <rect x="10" y="35" width="20" height="5" fill="rgb(186, 57, 18)" stroke="rgb(186, 57, 18)">
  </rect>
  <rect x="10" y="30" width="20" height="5" fill="rgb(176, 45, 16)" stroke="rgb(176, 45, 16)">
  </rect>
  <path d="M20,25L30,30L10,30" fill="rgb(166, 32, 15)">
  </path>
  <g class="scale-text">
    <text x="35" y="330">-20</text>
    <text x="35" y="305">-15</text>
    <text x="35" y="280">-10</text>
    <text x="35" y="255">-5</text>
    <text x="35" y="230">0</text>
    <text x="35" y="205">5</text>
    <text x="35" y="180">10</text>
    <text x="35" y="155">15</text>
    <text x="35" y="130">20</text>
    <text x="35" y="105">25</text>
    <text x="35" y="80">30</text>
    <text x="35" y="55">35</text>
    <text x="35" y="30">40</text>
  </g>
  <path d="M10,30L20,25L30,30L30,320L20,325L10,320Z" style="stroke: black; stroke-width: 1; fill: none;">
  </path>
</svg>